<?xml version="1.0" encoding="UTF-8"?>
<svg version="1.1" xmlns="http://www.w3.org/2000/svg" width="512" height="512">
<path d="M0 0 C17.04742216 -0.0703856 34.09479835 -0.12313183 51.14233303 -0.15543652 C59.059538 -0.17084134 66.97665218 -0.19180712 74.89379883 -0.22631836 C81.80223742 -0.25641798 88.71061019 -0.27562127 95.61911255 -0.28226548 C99.27000181 -0.28614331 102.92070293 -0.29511966 106.5715313 -0.31719017 C144.50428752 -0.53735121 178.90512332 7.435838 208 33 C208.82886719 33.69609375 209.65773437 34.3921875 210.51171875 35.109375 C232.34711081 53.8939823 246.55192669 80.17516353 253.3125 107.9375 C253.48426758 108.63544678 253.65603516 109.33339355 253.83300781 110.05249023 C254.85451777 114.50160328 255.15930192 118.47464534 255 123 C255.66 123 256.32 123 257 123 C257.01417969 122.27039063 257.02835937 121.54078125 257.04296875 120.7890625 C258.26630938 94.00782178 271.53852395 67.87311347 289 48 C289.69609375 47.17113281 290.3921875 46.34226563 291.109375 45.48828125 C311.53441436 21.74603659 341.32155044 6.29070036 372 1 C372.95173599 0.82614273 373.90347198 0.65228546 374.88404846 0.47315979 C380.55756632 -0.32169552 386.28749848 -0.13039162 392.00366211 -0.11352539 C393.95103271 -0.11374443 393.95103271 -0.11374443 395.93774414 -0.1139679 C399.48061907 -0.11425369 403.02345984 -0.1083922 406.56632686 -0.10139394 C410.27521893 -0.09512412 413.98411187 -0.09455374 417.69300842 -0.09336853 C424.70868594 -0.09026589 431.72434779 -0.08206693 438.74001843 -0.07201904 C446.73035304 -0.06082471 454.72068842 -0.0553391 462.71102893 -0.05032361 C479.14069511 -0.03988339 495.57034555 -0.02230468 512 0 C512.0703856 17.04742216 512.12313183 34.09479835 512.15543652 51.14233303 C512.17084134 59.059538 512.19180712 66.97665218 512.22631836 74.89379883 C512.25641798 81.80223742 512.27562127 88.71061019 512.28226548 95.61911255 C512.28614331 99.27000181 512.29511966 102.92070293 512.31719017 106.5715313 C512.53689354 144.42543294 504.61111266 179.00229393 479 208 C478.16855469 208.97582031 477.33710938 209.95164063 476.48046875 210.95703125 C457.78005638 232.51416216 431.57435819 246.61292216 404.0625 253.3125 C403.36455322 253.48426758 402.66660645 253.65603516 401.94750977 253.83300781 C397.49839672 254.85451777 393.52535466 255.15930192 389 255 C389 255.66 389 256.32 389 257 C389.72960937 257.01417969 390.45921875 257.02835937 391.2109375 257.04296875 C417.99217822 258.26630938 444.12688653 271.53852395 464 289 C464.82886719 289.69609375 465.65773438 290.3921875 466.51171875 291.109375 C491.49892829 312.60543595 509.00404676 346.12645365 512 379 C512.14022666 383.33480714 512.12632143 387.66693443 512.11352539 392.00366211 C512.11367142 393.30190918 512.11381744 394.60015625 512.1139679 395.93774414 C512.11425369 399.48061907 512.1083922 403.02345984 512.10139394 406.56632686 C512.09512412 410.27521893 512.09455374 413.98411187 512.09336853 417.69300842 C512.09026589 424.70868594 512.08206693 431.72434779 512.07201904 438.74001843 C512.06082471 446.73035304 512.0553391 454.72068842 512.05032361 462.71102893 C512.03988339 479.14069511 512.02230468 495.57034555 512 512 C494.95257784 512.0703856 477.90520165 512.12313183 460.85766697 512.15543652 C452.940462 512.17084134 445.02334782 512.19180712 437.10620117 512.22631836 C430.19776258 512.25641798 423.28938981 512.27562127 416.38088745 512.28226548 C412.72999819 512.28614331 409.07929707 512.29511966 405.4284687 512.31719017 C367.22065436 512.53896498 333.50708189 504.38442837 304 479 C303.04480469 478.19046875 302.08960938 477.3809375 301.10546875 476.546875 C279.52572697 457.81308141 265.3975125 431.61720818 258.6875 404.0625 C258.51573242 403.36455322 258.34396484 402.66660645 258.16699219 401.94750977 C257.14548223 397.49839672 256.84069808 393.52535466 257 389 C256.34 389 255.68 389 255 389 C254.98582031 389.72960937 254.97164062 390.45921875 254.95703125 391.2109375 C253.73587511 417.94435575 240.49292825 444.19395728 223 464 C221.75283203 465.46373047 221.75283203 465.46373047 220.48046875 466.95703125 C199.04235792 491.67007781 165.66091618 509.02342496 133 512 C128.66519286 512.14022666 124.33306557 512.12632143 119.99633789 512.11352539 C118.04896729 512.11374443 118.04896729 512.11374443 116.06225586 512.1139679 C112.51938093 512.11425369 108.97654016 512.1083922 105.43367314 512.10139394 C101.72478107 512.09512412 98.01588813 512.09455374 94.30699158 512.09336853 C87.29131406 512.09026589 80.27565221 512.08206693 73.25998157 512.07201904 C65.26964696 512.06082471 57.27931158 512.0553391 49.28897107 512.05032361 C32.85930489 512.03988339 16.42965445 512.02230468 0 512 C-0.0703856 494.95257784 -0.12313183 477.90520165 -0.15543652 460.85766697 C-0.17084134 452.940462 -0.19180712 445.02334782 -0.22631836 437.10620117 C-0.25641798 430.19776258 -0.27562127 423.28938981 -0.28226548 416.38088745 C-0.28614331 412.72999819 -0.29511966 409.07929707 -0.31719017 405.4284687 C-0.53735121 367.49571248 7.435838 333.09487668 33 304 C34.04414062 302.75669922 34.04414062 302.75669922 35.109375 301.48828125 C55.08985512 278.26279614 85.59070883 261.301066 116 257 C118.33295391 256.95792267 120.66726602 256.94711686 123 257 C123 256.34 123 255.68 123 255 C122.25878906 254.98582031 121.51757812 254.97164062 120.75390625 254.95703125 C88.7226653 253.50641201 57.68922986 234.73014961 36 212 C13.42547177 186.52778105 -0.21421295 154.12053772 -0.11352539 119.99633789 C-0.11367142 118.69809082 -0.11381744 117.39984375 -0.1139679 116.06225586 C-0.11425369 112.51938093 -0.1083922 108.97654016 -0.10139394 105.43367314 C-0.09512412 101.72478107 -0.09455374 98.01588813 -0.09336853 94.30699158 C-0.09026589 87.29131406 -0.08206693 80.27565221 -0.07201904 73.25998157 C-0.06082471 65.26964696 -0.0553391 57.27931158 -0.05032361 49.28897107 C-0.03988339 32.85930489 -0.02230468 16.42965445 0 0 Z " fill="#D6E183" transform="translate(0,0)"/>
<path d="M0 0 C3.68753843 1.84376922 5.50068924 3.2649848 8.328125 6.1328125 C9.12734375 6.93847656 9.9265625 7.74414062 10.75 8.57421875 C11.9875 9.83685547 11.9875 9.83685547 13.25 11.125 C14.09046875 11.97449219 14.9309375 12.82398437 15.796875 13.69921875 C17.86915683 15.79504923 19.93662393 17.89540713 22 20 C20.50469676 23.48972003 18.50808338 25.73465395 15.82568359 28.40136719 C14.53457169 29.6922525 14.53457169 29.6922525 13.21737671 31.00921631 C12.28712677 31.92914368 11.35687683 32.84907104 10.3984375 33.796875 C9.43678914 34.75479097 8.47558306 35.71315114 7.51480103 36.67193604 C4.99076718 39.18835125 2.46078409 41.69870107 -0.07049561 44.20782471 C-2.6547919 46.77162441 -5.23340199 49.34112918 -7.8125 51.91015625 C-12.86945697 56.94569457 -17.93272256 61.9748456 -23 67 C-19.34337096 69.43775269 -16.50584571 69.34686544 -12.26953125 69.4140625 C-11.51911057 69.43342865 -10.76868988 69.4527948 -9.99552917 69.4727478 C-7.60130133 69.53247459 -5.20702523 69.57890065 -2.8125 69.625 C-1.1881302 69.6631862 0.43621948 69.70223831 2.06054688 69.7421875 C6.04025928 69.83979925 10.01976038 69.91941976 14 70 C14 79.9 14 89.8 14 100 C9.02206621 100.11618621 4.04902199 100.21526923 -0.92919922 100.2746582 C-2.61458457 100.29946682 -4.29986638 100.33332576 -5.98486328 100.37719727 C-21.57357276 100.77225997 -32.88115015 98.05942492 -47 91 C-67.13 111.13 -87.26 131.26 -108 152 C-100.25660156 152.03738281 -92.51320313 152.07476562 -84.53515625 152.11328125 C-79.59958805 152.1435936 -74.6640545 152.17476291 -69.72851562 152.20898438 C-61.91220956 152.26309964 -54.09597201 152.31421704 -46.27954102 152.34643555 C-39.9705458 152.3726404 -33.66178359 152.4131619 -27.35293388 152.46318626 C-24.95830646 152.47973958 -22.56363885 152.49132504 -20.16896248 152.49761391 C16.0124269 152.60215297 49.39466274 161.74461918 77 186 C77.82886719 186.69609375 78.65773438 187.3921875 79.51171875 188.109375 C104.49892829 209.60543595 122.00404676 243.12645365 125 276 C125.14022666 280.33480714 125.12632143 284.66693443 125.11352539 289.00366211 C125.11367142 290.30190918 125.11381744 291.60015625 125.1139679 292.93774414 C125.11425369 296.48061907 125.1083922 300.02345984 125.10139394 303.56632686 C125.09512412 307.27521893 125.09455374 310.98411187 125.09336853 314.69300842 C125.09026589 321.70868594 125.08206693 328.72434779 125.07201904 335.74001843 C125.06082471 343.73035304 125.0553391 351.72068842 125.05032361 359.71102893 C125.03988339 376.14069511 125.02230468 392.57034555 125 409 C107.95257784 409.0703856 90.90520165 409.12313183 73.85766697 409.15543652 C65.940462 409.17084134 58.02334782 409.19180712 50.10620117 409.22631836 C43.19776258 409.25641798 36.28938981 409.27562127 29.38088745 409.28226548 C25.72999819 409.28614331 22.07929707 409.29511966 18.4284687 409.31719017 C-19.77934564 409.53896498 -53.49291811 401.38442837 -83 376 C-83.95519531 375.19046875 -84.91039062 374.3809375 -85.89453125 373.546875 C-111.09050235 351.67376239 -127.12096224 318.97725376 -131 286 C-131.15980429 282.36955577 -131.1844804 278.74126176 -131.20532227 275.10766602 C-131.21522186 274.03375107 -131.22512146 272.95983612 -131.23532104 271.8533783 C-131.26679056 268.32024302 -131.29163578 264.78709431 -131.31640625 261.25390625 C-131.33698834 258.79768026 -131.35798514 256.3414577 -131.37937927 253.88523865 C-131.43447025 247.43269648 -131.4839366 240.98012303 -131.53222656 234.52752686 C-131.591388 226.77892906 -131.65754437 219.03038821 -131.72252655 211.28183746 C-131.82037274 199.52125987 -131.90934061 187.76064509 -132 176 C-152.13 196.13 -172.26 216.26 -193 237 C-190.69 242.28 -188.38 247.56 -186 253 C-183.64755825 262.7439937 -183.760227 272.29073555 -183.875 282.25 C-183.88505911 283.78515035 -183.89417973 285.32030715 -183.90234375 286.85546875 C-183.92238226 290.5706077 -183.96156717 294.28482677 -184 298 C-193.9 298 -203.8 298 -214 298 C-214.04898438 295.58042969 -214.09796875 293.16085937 -214.1484375 290.66796875 C-214.20244698 288.32472547 -214.25975452 285.98158447 -214.31738281 283.63842773 C-214.35566618 282.00992451 -214.39052024 280.38133691 -214.421875 278.75268555 C-214.46754002 276.41163986 -214.52553077 274.0711747 -214.5859375 271.73046875 C-214.59748871 271.00224411 -214.60903992 270.27401947 -214.62094116 269.52372742 C-214.72878512 265.83038626 -214.89884276 264.15173586 -217 261 C-231.85 275.85 -246.7 290.7 -262 306 C-265.68753843 304.15623078 -267.50068924 302.7350152 -270.328125 299.8671875 C-271.12734375 299.06152344 -271.9265625 298.25585938 -272.75 297.42578125 C-273.575 296.58402344 -274.4 295.74226563 -275.25 294.875 C-276.51070313 293.60076172 -276.51070313 293.60076172 -277.796875 292.30078125 C-279.86915683 290.20495077 -281.93662393 288.10459287 -284 286 C-282.50469676 282.51027997 -280.50808338 280.26534605 -277.82568359 277.59863281 C-276.96494232 276.7380426 -276.10420105 275.87745239 -275.21737671 274.99078369 C-273.8220018 273.61089264 -273.8220018 273.61089264 -272.3984375 272.203125 C-271.43678914 271.24520903 -270.47558306 270.28684886 -269.51480103 269.32806396 C-266.99076718 266.81164875 -264.46078409 264.30129893 -261.92950439 261.79217529 C-259.3452081 259.22837559 -256.76659801 256.65887082 -254.1875 254.08984375 C-249.13054303 249.05430543 -244.06727744 244.0251544 -239 239 C-242.87391694 236.86975031 -246.25856596 236.65761156 -250.609375 236.5859375 C-251.33618469 236.56657135 -252.06299438 236.5472052 -252.81182861 236.5272522 C-255.12443448 236.46765729 -257.43709067 236.42115242 -259.75 236.375 C-261.32163582 236.33680164 -262.89325113 236.29774883 -264.46484375 236.2578125 C-268.30978671 236.16036938 -272.15452137 236.0806447 -276 236 C-276 226.1 -276 216.2 -276 206 C-271.18272926 205.8836408 -266.37054881 205.78461892 -261.55297852 205.7253418 C-259.92292552 205.70057381 -258.29297881 205.66674869 -256.66333008 205.62280273 C-243.68096138 205.28211075 -231.42526627 206.48967115 -219.76977539 212.72924805 C-217.23127774 214.14602703 -217.23127774 214.14602703 -215.1776886 213.93075562 C-211.86978141 212.5169386 -209.77732557 209.98043657 -207.38720703 207.37866211 C-206.24606365 206.16516775 -205.10470623 204.95187464 -203.96316528 203.73875427 C-203.36078159 203.09319517 -202.7583979 202.44763607 -202.13776016 201.78251457 C-198.92192822 198.35247633 -195.65423269 194.97226342 -192.39453125 191.58398438 C-188.25600382 187.27823049 -184.13453188 182.9600161 -180.07470703 178.57983398 C-155.01997265 151.60483234 -155.01997265 151.60483234 -143.00631714 150.96107483 C-138.79828338 151.20034614 -135.05845504 151.85121473 -131 153 C-131.35457275 151.77804932 -131.70914551 150.55609863 -132.07446289 149.29711914 C-133.41441459 142.35426962 -133.75663462 135.41091557 -129.86495209 129.18379974 C-122.18614809 118.84993113 -112.08282256 110.20370039 -102.66442871 101.50354004 C-96.80831648 96.0705137 -91.0525536 90.5308242 -85.28822517 85.00084114 C-83.27130818 83.0825749 -81.23207737 81.19089197 -79.18711853 79.30259705 C-77.95310462 78.14145981 -76.71940863 76.97998456 -75.48608398 75.81811523 C-74.91209366 75.30025955 -74.33810333 74.78240387 -73.74671936 74.24885559 C-71.99138266 72.64245623 -71.99138266 72.64245623 -70 70 C-69.96719864 67.28071544 -69.96719864 67.28071544 -71 65 C-71.21398437 64.35417969 -71.42796875 63.70835937 -71.6484375 63.04296875 C-71.88820313 62.43066406 -72.12796875 61.81835938 -72.375 61.1875 C-72.76945312 60.16269531 -72.76945312 60.16269531 -73.171875 59.1171875 C-73.44515625 58.41851562 -73.7184375 57.71984375 -74 57 C-74.54540242 55.60562212 -75.08716574 54.20981449 -75.625 52.8125 C-75.86476563 52.20019531 -76.10453125 51.58789062 -76.3515625 50.95703125 C-78.03772066 45.86808403 -78.13370235 40.95603349 -78.09765625 35.63671875 C-78.09553383 34.44874443 -78.09553383 34.44874443 -78.09336853 33.23677063 C-78.08779457 30.72030781 -78.07524693 28.20393569 -78.0625 25.6875 C-78.05748163 23.97591275 -78.05291931 22.26432409 -78.04882812 20.55273438 C-78.03868681 16.36842698 -78.01910646 12.18431438 -78 8 C-68.1 8 -58.2 8 -48 8 C-47.95101562 10.33578125 -47.90203125 12.6715625 -47.8515625 15.078125 C-47.79752164 17.34527889 -47.74022644 19.61232884 -47.68261719 21.87939453 C-47.64438171 23.45255765 -47.60951934 25.02580658 -47.578125 26.59912109 C-47.53235578 28.86326723 -47.47438239 31.12682547 -47.4140625 33.390625 C-47.39673569 34.44240936 -47.39673569 34.44240936 -47.37905884 35.51544189 C-47.26079349 39.44607144 -46.81420604 41.37158793 -45 45 C-30.15 30.15 -15.3 15.3 0 0 Z " fill="#25AE7E" transform="translate(387,103)"/>
<path d="M0 0 C1.08366852 -0.00014603 2.16733704 -0.00029205 3.28384399 -0.0004425 C6.84948764 0.00025163 10.41507842 0.00802063 13.98071289 0.01586914 C16.45935538 0.01773509 18.93799824 0.01915816 21.41664124 0.02015686 C27.92840602 0.02396807 34.44014836 0.03378642 40.9519043 0.04486084 C47.60147681 0.0556481 54.25105588 0.05966092 60.90063477 0.06469727 C73.93905578 0.07540995 86.97746126 0.09227634 100.01586914 0.11352539 C96.28000511 4.55846889 92.44599371 8.84306565 88.36523438 12.97290039 C87.8359433 13.51197525 87.30665222 14.05105011 86.76132202 14.60646057 C85.03544884 16.36188321 83.30564661 18.11334034 81.57446289 19.86352539 C80.68189128 20.76595474 80.68189128 20.76595474 79.77128792 21.68661499 C76.63075687 24.85953389 73.48629996 28.02851129 70.33935547 31.19506836 C67.7386548 33.81368853 65.14676853 36.44059366 62.56201172 39.07495117 C59.43007631 42.2668868 56.28384077 45.44402599 53.1266346 48.61096191 C51.92819063 49.8179789 50.73489871 51.03013394 49.54690361 52.24743652 C47.89067291 53.94236109 46.21672307 55.61759675 44.53710938 57.28930664 C44.05022141 57.79619522 43.56333344 58.3030838 43.06169128 58.82533264 C41.66477966 60.19287109 41.66477966 60.19287109 39.01586914 62.11352539 C36.29310608 61.95556641 36.29310608 61.95556641 34.01586914 61.11352539 C33.37004883 60.89954102 32.72422852 60.68555664 32.05883789 60.46508789 C31.4465332 60.22532227 30.83422852 59.98555664 30.20336914 59.73852539 C29.52016602 59.47555664 28.83696289 59.21258789 28.13305664 58.94165039 C26.72159831 58.38956706 25.31013997 57.83748372 23.89868164 57.28540039 C23.21547852 57.02243164 22.53227539 56.75946289 21.82836914 56.48852539 C21.21606445 56.24875977 20.60375977 56.00899414 19.97290039 55.76196289 C14.92330269 54.08884269 9.93262959 53.91297643 4.65258789 53.79711914 C3.86060501 53.77633804 3.06862213 53.75555695 2.25263977 53.73414612 C-0.26370014 53.66904735 -2.78013958 53.60995116 -5.29663086 53.55102539 C-7.00822947 53.50780239 -8.71981821 53.46418691 -10.43139648 53.42016602 C-14.615541 53.31267224 -18.79976687 53.21330474 -22.98413086 53.11352539 C-22.98413086 63.01352539 -22.98413086 72.91352539 -22.98413086 83.11352539 C-20.65995117 83.09032227 -18.33577148 83.06711914 -15.94116211 83.04321289 C-13.68066961 83.02759837 -11.42018321 83.0154639 -9.15966797 83.00366211 C-7.59323419 82.99362813 -6.02681903 82.97999785 -4.46044922 82.96264648 C-2.20397333 82.93828314 0.05225409 82.92701623 2.30883789 82.91821289 C3.00486618 82.90789032 3.70089447 82.89756775 4.41801453 82.88693237 C8.40171405 82.886021 11.42877023 83.35794269 15.01586914 85.11352539 C10.2645064 90.83053077 5.16972327 96.09041963 -0.10131836 101.32836914 C-0.95847443 102.18411026 -1.81563049 103.03985138 -2.69876099 103.92152405 C-5.4165304 106.63373004 -8.13776977 109.34242369 -10.85913086 112.05102539 C-12.71092428 113.89779908 -14.5624892 115.74480192 -16.41381836 117.59204102 C-20.93461521 122.1018574 -25.45826032 126.60880109 -29.98413086 131.11352539 C-28.40825081 134.43831989 -26.70241596 136.62984156 -24.07006836 139.22290039 C-23.30952148 139.97700195 -22.54897461 140.73110352 -21.76538086 141.50805664 C-20.97131836 142.28536133 -20.17725586 143.06266602 -19.35913086 143.86352539 C-18.55733398 144.65629883 -17.75553711 145.44907227 -16.92944336 146.26586914 C-14.9521024 148.21967033 -12.97024177 150.16864642 -10.98413086 152.11352539 C-7.49441082 150.61822215 -5.24947691 148.62160877 -2.58276367 145.93920898 C-1.72217346 145.07846771 -0.86158325 144.21772644 0.02508545 143.3309021 C0.94501282 142.40065216 1.86494019 141.47040222 2.81274414 140.51196289 C3.77066011 139.55031453 4.72902028 138.58910845 5.68780518 137.62832642 C8.20422039 135.10429257 10.71457021 132.57430948 13.22369385 130.04302979 C15.78749355 127.45873349 18.35699832 124.8801234 20.92602539 122.30102539 C25.96156371 117.24406842 30.99071474 112.18080283 36.01586914 107.11352539 C36.67586914 107.44352539 37.33586914 107.77352539 38.01586914 108.11352539 C39.22664615 111.74585641 39.14031078 115.06474526 39.11352539 118.84399414 C39.11140297 119.96962517 39.11140297 119.96962517 39.10923767 121.11799622 C39.10364474 123.51237999 39.09109358 125.90666992 39.07836914 128.30102539 C39.07335323 129.925373 39.06879048 131.54972207 39.06469727 133.17407227 C39.05452894 137.15395514 39.03495226 141.13363532 39.01586914 145.11352539 C48.91586914 145.11352539 58.81586914 145.11352539 69.01586914 145.11352539 C68.91802129 140.63312382 68.81474777 136.15346122 68.69848633 131.67358398 C68.66061255 130.15510215 68.62569404 128.63654319 68.59399414 127.11791992 C68.34140595 115.15944768 68.07487191 103.55763996 62.89086914 92.55102539 C60.01586914 86.38146797 60.01586914 86.38146797 60.01586914 83.11352539 C61.81967769 81.02263704 63.6359775 79.10516145 65.59960938 77.17333984 C66.19297089 76.57793396 66.7863324 75.98252808 67.39767456 75.36907959 C69.36608828 73.39765114 71.34505319 71.43718955 73.32446289 69.47680664 C74.69028385 68.11404182 76.05551613 66.75068677 77.42018127 65.38676453 C80.28323806 62.52831498 83.15114287 59.67485389 86.02294922 56.82519531 C89.71335091 53.16310299 93.39499474 49.49236343 97.07350063 45.818326 C99.89272999 43.00324312 102.71478008 40.19100358 105.53788948 37.37981224 C106.89680195 36.02661668 108.25523404 34.67293855 109.61318779 33.3187809 C111.50709222 31.43171259 113.40434326 29.5480806 115.30273438 27.66552734 C115.86953415 27.09984543 116.43633392 26.53416351 117.02030945 25.95133972 C120.90118385 22.11352539 120.90118385 22.11352539 122.01586914 22.11352539 C122.08634118 36.29248849 122.13884229 50.47142395 122.17130566 64.650527 C122.18689433 71.23599298 122.20800723 77.82134047 122.2421875 84.40673828 C122.27502482 90.7739737 122.29277314 97.14109587 122.30050087 103.5084095 C122.30600093 105.92541344 122.31673981 108.34241189 122.33305931 110.75936699 C122.56737853 146.93444595 113.34513062 180.56717148 89.01586914 208.11352539 C88.18442383 209.0893457 87.35297852 210.06516602 86.49633789 211.07055664 C65.05822706 235.7836032 31.67678532 253.13695035 -0.98413086 256.11352539 C-5.318938 256.25375206 -9.65106529 256.23984682 -13.98779297 256.22705078 C-15.93516357 256.22726982 -15.93516357 256.22726982 -17.921875 256.22749329 C-21.46474993 256.22777908 -25.0075907 256.22191759 -28.55045772 256.21491933 C-32.25934979 256.20864951 -35.96824273 256.20807913 -39.67713928 256.20689392 C-46.6928168 256.20379128 -53.70847865 256.19559232 -60.72414929 256.18554443 C-68.7144839 256.1743501 -76.70481928 256.16886449 -84.69515979 256.163849 C-101.12482597 256.15340878 -117.55447641 256.13583007 -133.98413086 256.11352539 C-134.05451646 239.06610323 -134.10726269 222.01872704 -134.13956738 204.97119236 C-134.1549722 197.05398739 -134.17593798 189.13687321 -134.21044922 181.21972656 C-134.24054884 174.31128797 -134.25975212 167.4029152 -134.26639634 160.49441284 C-134.27027417 156.84352358 -134.27925052 153.19282246 -134.30132103 149.54199409 C-134.52148207 111.60923787 -126.54829286 77.20840207 -100.98413086 48.11352539 C-100.28803711 47.2846582 -99.59194336 46.45579102 -98.87475586 45.60180664 C-78.4497165 21.85956198 -48.66258042 6.40422575 -17.98413086 1.11352539 C-16.99074203 0.93966812 -15.99735321 0.76581085 -14.97386169 0.58668518 C-9.99609459 -0.11182452 -5.01710664 -0.01781053 0 0 Z " fill="#96CD7D" transform="translate(133.984130859375,255.886474609375)"/>
<path d="M0 0 C1.94737061 -0.00021904 1.94737061 -0.00021904 3.93408203 -0.0004425 C7.47695696 -0.0007283 11.01979773 0.00513319 14.56266475 0.01213145 C18.27155682 0.01840127 21.98044976 0.01897166 25.68934631 0.02015686 C32.70502383 0.0232595 39.72068568 0.03145846 46.73635632 0.04150635 C54.72669093 0.05270068 62.71702631 0.0581863 70.70736682 0.06320179 C87.137033 0.073642 103.56668344 0.09122071 119.99633789 0.11352539 C120.06672349 17.16094755 120.11946972 34.20832374 120.15177441 51.25585842 C120.16717923 59.17306339 120.18814501 67.09017757 120.22265625 75.00732422 C120.25275587 81.91576281 120.27195916 88.82413559 120.27860337 95.73263794 C120.2824812 99.3835272 120.29145755 103.03422832 120.31352806 106.68505669 C120.53323143 144.53895833 112.60745055 179.11581932 86.99633789 208.11352539 C86.16489258 209.0893457 85.33344727 210.06516602 84.47680664 211.07055664 C62.66355082 236.21605621 29.9099096 252.29551489 -3.00366211 256.11352539 C-6.66558224 256.24930574 -10.32372644 256.24005807 -13.98779297 256.22705078 C-15.61329575 256.22726982 -15.61329575 256.22726982 -17.27163696 256.22749329 C-20.83728061 256.22679915 -24.40287139 256.21903016 -27.96850586 256.21118164 C-30.44714835 256.20931569 -32.92579121 256.20789262 -35.4044342 256.20689392 C-41.91619898 256.20308272 -48.42794133 256.19326436 -54.93969727 256.18218994 C-61.58926978 256.17140268 -68.23884885 256.16738986 -74.88842773 256.16235352 C-87.92684874 256.15164083 -100.96525423 256.13477444 -114.00366211 256.11352539 C-110.23372726 251.61276693 -106.34761595 247.31412342 -102.18188477 243.17822266 C-101.63480865 242.63100052 -101.08773254 242.08377838 -100.52407837 241.51997375 C-98.74099078 239.73757486 -96.95440328 237.95873016 -95.16772461 236.17993164 C-93.92054701 234.93462194 -92.6735921 233.68908918 -91.42684937 232.44334412 C-88.16418106 229.18447173 -84.8985196 225.92861521 -81.63220215 222.67340088 C-78.29195149 219.34342761 -74.9545728 216.01057866 -71.61694336 212.67797852 C-65.08197318 206.153694 -58.5438338 199.63259543 -52.00366211 193.11352539 C-50.41038086 193.83668945 -50.41038086 193.83668945 -48.78491211 194.57446289 C-47.35798201 195.21282636 -45.93088994 195.85082785 -44.50366211 196.48852539 C-43.80756836 196.80563477 -43.11147461 197.12274414 -42.39428711 197.44946289 C-36.40990494 200.1091883 -30.32834851 202.29426109 -23.69897461 202.43237305 C-22.95881104 202.45224274 -22.21864746 202.47211243 -21.45605469 202.49258423 C-20.68801514 202.50413544 -19.91997559 202.51568665 -19.12866211 202.52758789 C-18.31872803 202.54695404 -17.50879395 202.56632019 -16.67431641 202.58627319 C-14.11753477 202.64548541 -11.56070666 202.69221785 -9.00366211 202.73852539 C-7.25755001 202.77675906 -5.51145569 202.81581382 -3.76538086 202.85571289 C0.48842662 202.95266577 4.74207215 203.03269434 8.99633789 203.11352539 C8.99633789 193.21352539 8.99633789 183.31352539 8.99633789 173.11352539 C5.38438477 173.14833008 5.38438477 173.14833008 1.69946289 173.18383789 C-0.63712029 173.19944306 -2.97369763 173.21158287 -5.31030273 173.22338867 C-6.93207403 173.23343562 -8.55382727 173.24707554 -10.17553711 173.2644043 C-12.50891585 173.28871033 -14.84205471 173.30002152 -17.17553711 173.30883789 C-18.26013214 173.32432175 -18.26013214 173.32432175 -19.36663818 173.34011841 C-23.18346019 173.34096581 -25.68706166 172.95390991 -29.00366211 171.11352539 C-24.25229937 165.39652001 -19.15751624 160.13663116 -13.88647461 154.89868164 C-12.60074051 153.61506996 -12.60074051 153.61506996 -11.28903198 152.30552673 C-8.57126257 149.59332074 -5.8500232 146.88462709 -3.12866211 144.17602539 C-1.27686869 142.3292517 0.57469623 140.48224886 2.42602539 138.63500977 C6.94682224 134.12519338 11.47046735 129.6182497 15.99633789 125.11352539 C14.42045785 121.78873089 12.714623 119.59720922 10.08227539 117.00415039 C9.32172852 116.25004883 8.56118164 115.49594727 7.77758789 114.71899414 C6.98352539 113.94168945 6.18946289 113.16438477 5.37133789 112.36352539 C4.56954102 111.57075195 3.76774414 110.77797852 2.94165039 109.96118164 C0.96430943 108.00738046 -1.0175512 106.05840436 -3.00366211 104.11352539 C-6.49338214 105.60882863 -8.73831606 107.60544201 -11.4050293 110.2878418 C-12.26561951 111.14858307 -13.12620972 112.00932434 -14.01287842 112.89614868 C-14.93280579 113.82639862 -15.85273315 114.75664856 -16.80053711 115.71508789 C-17.75845308 116.67673626 -18.71681325 117.63794233 -19.67559814 118.59872437 C-22.19201336 121.12275821 -24.70236318 123.6527413 -27.21148682 126.184021 C-29.77528652 128.7683173 -32.34479129 131.34692738 -34.91381836 133.92602539 C-39.94935668 138.98298236 -44.97850771 144.04624795 -50.00366211 149.11352539 C-52.74632756 146.37085994 -52.98757502 144.59105239 -53.1171875 140.74365234 C-53.11702961 139.36302698 -53.11140628 137.98239515 -53.10131836 136.60180664 C-53.09990341 135.873582 -53.09848846 135.14535736 -53.09703064 134.39506531 C-53.0914387 132.07201 -53.07888773 129.74905151 -53.06616211 127.42602539 C-53.06114607 125.84985491 -53.05658334 124.27368291 -53.05249023 122.69750977 C-53.04232332 118.83611444 -53.02274647 114.97492814 -53.00366211 111.11352539 C-62.90366211 111.11352539 -72.80366211 111.11352539 -83.00366211 111.11352539 C-82.97521677 115.93113222 -82.9311977 120.74412988 -82.85107422 125.56054688 C-82.8282275 127.19033249 -82.81357895 128.82025876 -82.80810547 130.45019531 C-82.75645289 143.31963408 -81.45029267 155.79785488 -75.27636719 167.34375 C-74.00366211 170.11352539 -74.00366211 170.11352539 -74.07377625 171.91401672 C-75.49952861 175.28642489 -78.03908116 177.54799343 -80.60913086 180.07543945 C-81.19288483 180.66123779 -81.77663879 181.24703613 -82.37808228 181.85058594 C-84.30859901 183.78410986 -86.2496417 185.7066809 -88.19116211 187.62915039 C-89.53313408 188.96806521 -90.87451649 190.30757116 -92.21533203 191.64764404 C-95.0253322 194.4530419 -97.84017262 197.25345602 -100.65893555 200.05004883 C-104.28094119 203.64371773 -107.89416219 207.24605849 -111.5042572 210.85168839 C-114.27287201 213.61615731 -117.04430716 216.37778287 -119.81680298 219.13835907 C-121.15059503 220.46643545 -122.48390755 221.79499359 -123.81674194 223.12403107 C-125.6746147 224.97506839 -127.53583298 226.82266869 -129.39819336 228.66918945 C-130.23201035 229.50132965 -130.23201035 229.50132965 -131.08267212 230.35028076 C-134.88897429 234.11352539 -134.88897429 234.11352539 -136.00366211 234.11352539 C-136.07413415 219.93456229 -136.12663526 205.75562684 -136.15909863 191.57652378 C-136.1746873 184.9910578 -136.1958002 178.40571031 -136.22998047 171.8203125 C-136.26281779 165.45307708 -136.28056611 159.08595492 -136.28829384 152.71864128 C-136.2937939 150.30163734 -136.30453278 147.88463889 -136.32085228 145.46768379 C-136.55564831 109.2189927 -127.28839788 75.75227187 -103.00366211 48.11352539 C-102.30756836 47.2846582 -101.61147461 46.45579102 -100.89428711 45.60180664 C-80.46924775 21.85956198 -50.68211167 6.40422575 -20.00366211 1.11352539 C-19.05192612 0.93966812 -18.10019012 0.76581085 -17.11961365 0.58668518 C-11.44609579 -0.20817013 -5.71616363 -0.01686623 0 0 Z " fill="#96CD7D" transform="translate(392.003662109375,-0.113525390625)"/>
<path d="M0 0 C3.48972003 1.49530324 5.73465395 3.49191662 8.40136719 6.17431641 C9.2619574 7.03505768 10.12254761 7.89579895 11.00921631 8.78262329 C11.92914368 9.71287323 12.84907104 10.64312317 13.796875 11.6015625 C14.75479097 12.56321086 15.71315114 13.52441694 16.67193604 14.48519897 C19.18835125 17.00923282 21.69870107 19.53921591 24.20782471 22.07049561 C26.77162441 24.6547919 29.34112918 27.23340199 31.91015625 29.8125 C36.94569457 34.86945697 41.9748456 39.93272256 47 45 C49.13024969 41.12608306 49.34238844 37.74143404 49.4140625 33.390625 C49.43342865 32.66381531 49.4527948 31.93700562 49.4727478 31.18817139 C49.53234271 28.87556552 49.57884758 26.56290933 49.625 24.25 C49.66319836 22.67836418 49.70225117 21.10674887 49.7421875 19.53515625 C49.83963062 15.69021329 49.9193553 11.84547863 50 8 C59.9 8 69.8 8 80 8 C80.1163592 12.81727074 80.21538108 17.62945119 80.2746582 22.44702148 C80.29942619 24.07707448 80.33325131 25.70702119 80.37719727 27.33666992 C80.71788925 40.31903862 79.51032885 52.57473373 73.27075195 64.23022461 C71.85397297 66.76872226 71.85397297 66.76872226 72.06924438 68.8223114 C73.4830614 72.13021859 76.01956343 74.22267443 78.62133789 76.61279297 C79.83483225 77.75393635 81.04812536 78.89529377 82.26124573 80.03683472 C82.90680483 80.63921841 83.55236393 81.2416021 84.21748543 81.86223984 C87.64752367 85.07807178 91.02773658 88.34576731 94.41601562 91.60546875 C98.72176951 95.74399618 103.0399839 99.86546812 107.42016602 103.92529297 C134.39516766 128.98002735 134.39516766 128.98002735 135.03892517 140.99368286 C134.79965386 145.20171662 134.14878527 148.94154496 133 153 C125.38834158 155.20867071 118.54827457 155.81349651 111 153 C99.63547093 145.89765269 90.51459665 134.41938457 81.50354004 124.66442871 C76.0705137 118.80831648 70.5308242 113.0525536 65.00084114 107.28822517 C63.0825749 105.27130818 61.19089197 103.23207737 59.30259705 101.18711853 C58.14145981 99.95310462 56.97998456 98.71940863 55.81811523 97.48608398 C55.30025955 96.91209366 54.78240387 96.33810333 54.24885559 95.74671936 C52.64245623 93.99138266 52.64245623 93.99138266 50 92 C47.35434647 91.92269321 47.35434647 91.92269321 45 93 C43.14761719 93.680625 43.14761719 93.680625 41.2578125 94.375 C39.18724002 95.18264204 37.12160379 96.00136105 35.05859375 96.828125 C34.04345703 97.22257812 34.04345703 97.22257812 33.0078125 97.625 C32.40598145 97.86476563 31.80415039 98.10453125 31.18408203 98.3515625 C25.51162872 100.03567115 19.74960341 100.14047878 13.87890625 100.09765625 C13.13414536 100.0962413 12.38938446 100.09482635 11.62205505 100.09336853 C9.26882727 100.08781989 6.9156985 100.07527733 4.5625 100.0625 C2.95638159 100.05747835 1.35026168 100.05291661 -0.25585938 100.04882812 C-4.17064074 100.03872286 -8.08521097 100.01913802 -12 100 C-12 90.1 -12 80.2 -12 70 C-9.66421875 69.95101562 -7.3284375 69.90203125 -4.921875 69.8515625 C-2.65472111 69.79752164 -0.38767116 69.74022644 1.87939453 69.68261719 C3.45255765 69.64438171 5.02580658 69.60951934 6.59912109 69.578125 C8.86326723 69.53235578 11.12682547 69.47438239 13.390625 69.4140625 C14.09181458 69.40251129 14.79300415 69.39096008 15.51544189 69.37905884 C19.44607144 69.26079349 21.37158793 68.81420604 25 67 C10.15 52.15 -4.7 37.3 -20 22 C-18.15623078 18.31246157 -16.7350152 16.49931076 -13.8671875 13.671875 C-12.65869141 12.47304687 -12.65869141 12.47304687 -11.42578125 11.25 C-10.58402344 10.425 -9.74226563 9.6 -8.875 8.75 C-8.02550781 7.90953125 -7.17601563 7.0690625 -6.30078125 6.203125 C-4.20495077 4.13084317 -2.10459287 2.06337607 0 0 Z " fill="#97CE7E" transform="translate(123,103)"/>
<path d="M0 0 C19.18451874 -2.33248439 19.18451874 -2.33248439 26.37322998 2.40673828 C30.54288123 5.74359355 34.11451575 9.63034474 37.7109375 13.5625 C39.0646363 14.95734054 40.42335549 16.34732439 41.78677368 17.73266602 C45.32634976 21.35541467 48.79480042 25.03913924 52.25146484 28.74084473 C55.8046028 32.52090475 59.42253995 36.23784126 63.03515625 39.9609375 C70.08744806 47.2476904 77.06605158 54.60066725 84 62 C85.086297 61.51127411 86.17259399 61.02254822 87.29180908 60.51901245 C88.73771704 59.87553136 90.18374818 59.23232698 91.62988281 58.58935547 C92.34338898 58.2674675 93.05689514 57.94557953 93.79202271 57.61393738 C105.32618664 52.50632828 116.87510886 52.73238873 129.25 52.875 C130.78515035 52.88505911 132.32030715 52.89417973 133.85546875 52.90234375 C137.5706077 52.92238226 141.28482677 52.96156717 145 53 C145 62.9 145 72.8 145 83 C142.58042969 83.04898438 140.16085937 83.09796875 137.66796875 83.1484375 C135.32472547 83.20244698 132.98158447 83.25975452 130.63842773 83.31738281 C129.00992451 83.35566618 127.38133691 83.39052024 125.75268555 83.421875 C123.41163986 83.46754002 121.0711747 83.52553077 118.73046875 83.5859375 C118.00224411 83.59748871 117.27401947 83.60903992 116.52372742 83.62094116 C112.83038626 83.72878512 111.15173586 83.89884276 108 86 C122.85 100.85 137.7 115.7 153 131 C151.15623078 134.68753843 149.7350152 136.50068924 146.8671875 139.328125 C145.65869141 140.52695312 145.65869141 140.52695312 144.42578125 141.75 C143.16314453 142.9875 143.16314453 142.9875 141.875 144.25 C141.02550781 145.09046875 140.17601562 145.9309375 139.30078125 146.796875 C137.20495077 148.86915683 135.10459287 150.93662393 133 153 C129.51027997 151.50469676 127.26534605 149.50808338 124.59863281 146.82568359 C123.7380426 145.96494232 122.87745239 145.10420105 121.99078369 144.21737671 C121.07085632 143.28712677 120.15092896 142.35687683 119.203125 141.3984375 C118.24520903 140.43678914 117.28684886 139.47558306 116.32806396 138.51480103 C113.81164875 135.99076718 111.30129893 133.46078409 108.79217529 130.92950439 C106.22837559 128.3452081 103.65887082 125.76659801 101.08984375 123.1875 C96.05430543 118.13054303 91.0251544 113.06727744 86 108 C83.56224731 111.65662904 83.65313456 114.49415429 83.5859375 118.73046875 C83.56657135 119.48088943 83.5472052 120.23131012 83.5272522 121.00447083 C83.46752541 123.39869867 83.42109935 125.79297477 83.375 128.1875 C83.3368138 129.8118698 83.29776169 131.43621948 83.2578125 133.06054688 C83.16020075 137.04025928 83.08058024 141.01976038 83 145 C73.1 145 63.2 145 53 145 C52.93045524 140.25292646 52.87093398 135.50767861 52.83520508 130.76049805 C52.82028366 129.15171257 52.79993909 127.54296656 52.77368164 125.93432617 C52.56851043 113.02463204 53.51101839 102.00072342 59.11645508 90.11450195 C59.65651688 88.96359573 60.19657867 87.81268951 60.75300598 86.62690735 C61.16451401 85.76002792 61.57602203 84.8931485 62 84 C61.22325928 83.27211273 60.44651855 82.54422546 59.64624023 81.79428101 C52.28880809 74.88524587 44.99205629 67.91698055 37.74861145 60.88847923 C34.02350088 57.27760592 30.28110153 53.68976157 26.48925781 50.14892578 C22.82161692 46.72256768 19.21248392 43.24317304 15.63528442 39.72258377 C14.27012785 38.3976934 12.88591368 37.09211917 11.48214722 35.80820847 C5.13970836 29.9860437 -0.05145882 25.04276255 -0.83251953 16.12335205 C-0.97892132 10.71136027 -0.65311918 5.37185898 0 0 Z " fill="#008575" transform="translate(256,256)"/>
</svg>
